<?xml version="1.0" standalone="no"?><!DOCTYPE svg PUBLIC "-//W3C//DTD SVG 1.1//EN" "http://www.w3.org/Graphics/SVG/1.1/DTD/svg11.dtd"><svg t="1653300878571" class="icon" viewBox="0 0 1024 1024" version="1.1" xmlns="http://www.w3.org/2000/svg" p-id="18808" xmlns:xlink="http://www.w3.org/1999/xlink" width="200" height="200"><defs><style type="text/css"></style></defs><path d="M256 653.44h362.666667a21.333333 21.333333 0 0 0 0-42.666667H256a21.333333 21.333333 0 0 0 0 42.666667zM256 376.106667h149.333333a21.333333 21.333333 0 0 0 0-42.666667h-149.333333a21.333333 21.333333 0 0 0 0 42.666667zM454.186667 527.146667a21.333333 21.333333 0 0 0 30.08 0l448-448a21.333333 21.333333 0 0 0-30.08-30.08l-448 448a21.333333 21.333333 0 0 0 0 30.08z" fill="#666666" p-id="18809"></path><path d="M909.44 342.613333a21.333333 21.333333 0 0 0-21.333333 21.333334V874.666667A51.2 51.2 0 0 1 832 930.773333H192c-35.2 0-71.893333-21.333333-71.893333-55.893333V149.333333A78.506667 78.506667 0 0 1 192 77.44h422.613333a21.333333 21.333333 0 0 0 0-42.666667H192A120.96 120.96 0 0 0 77.44 149.333333v725.333334c0 58.88 55.893333 98.773333 114.773333 98.773333H832A93.653333 93.653333 0 0 0 930.773333 874.666667V363.946667a21.333333 21.333333 0 0 0-21.333333-21.333334z" fill="#666666" p-id="18810"></path></svg>