<?xml version="1.0" standalone="no"?><!DOCTYPE svg PUBLIC "-//W3C//DTD SVG 1.1//EN" "http://www.w3.org/Graphics/SVG/1.1/DTD/svg11.dtd"><svg class="icon" width="200px" height="200.00px" viewBox="0 0 1024 1024" version="1.1" xmlns="http://www.w3.org/2000/svg"><path fill="#333333" d="M831.9 146.84H683.23v35.74h139.73c29.49 0 53.61 24.13 53.61 53.61v634.44c0 29.49-24.13 53.61-53.61 53.61H201.04c-29.49 0-53.61-24.13-53.61-53.61V236.2c0-29.49 24.13-53.61 53.61-53.61h139.74v-35.74H192.1c-44.23 0-80.42 36.19-80.42 80.42v652.31c0 44.23 36.19 80.42 80.42 80.42h639.8c44.23 0 80.42-36.19 80.42-80.42V227.26c0-44.23-36.19-80.42-80.42-80.42z"  /><path fill="#333333" d="M665.36 64H358.65c-29.49 0-53.61 24.13-53.61 53.61v94.66c0 29.49 24.13 53.61 53.61 53.61h306.72c29.49 0 53.61-24.13 53.61-53.61v-94.66c0-29.48-24.13-53.61-53.62-53.61z m17.87 139.33c0 14.74-12.06 26.81-26.81 26.81H367.58c-14.74 0-26.81-12.06-26.81-26.81v-76.78c0-14.74 12.06-26.81 26.81-26.81h288.85c14.74 0 26.81 12.06 26.81 26.81v76.78zM723.4 533.55H300.61c-6.6 0-12-5.4-12-12v-11.74c0-6.6 5.4-12 12-12H723.4c6.6 0 12 5.4 12 12v11.74c0 6.6-5.4 12-12 12zM723.4 657.75H300.61c-6.6 0-12-5.4-12-12v-11.74c0-6.6 5.4-12 12-12H723.4c6.6 0 12 5.4 12 12v11.74c0 6.6-5.4 12-12 12z"  /></svg>