<?xml version="1.0" encoding="UTF-8"?>
<svg width="16px" height="16px" viewBox="0 0 16 16" version="1.1" xmlns="http://www.w3.org/2000/svg" xmlns:xlink="http://www.w3.org/1999/xlink">
    <title>mistake</title>
    <g id="mistake" stroke="none" stroke-width="1" fill="none" fill-rule="evenodd">
        <g fill="#FD5151" fill-rule="nonzero" id="编组-5">
            <g transform="translate(4.000000, 4.000000)">
                <path d="M0.195262146,0.195262146 C0.426683948,-0.0361596566 0.785916483,-0.0618731903 1.04574067,0.118121545 L1.13807119,0.195262146 L7.80473785,6.86192881 C8.06508738,7.12227834 8.06508738,7.54438833 7.80473785,7.80473785 C7.57331605,8.03615966 7.21408352,8.06187319 6.95425933,7.88187845 L6.86192881,7.80473785 L0.195262146,1.13807119 C-0.065087382,0.87772166 -0.065087382,0.455611674 0.195262146,0.195262146 Z" id="直线-2"></path>
                <path d="M0.195262146,0.195262146 C0.426683948,-0.0361596566 0.785916483,-0.0618731903 1.04574067,0.118121545 L1.13807119,0.195262146 L7.80473785,6.86192881 C8.06508738,7.12227834 8.06508738,7.54438833 7.80473785,7.80473785 C7.57331605,8.03615966 7.21408352,8.06187319 6.95425933,7.88187845 L6.86192881,7.80473785 L0.195262146,1.13807119 C-0.065087382,0.87772166 -0.065087382,0.455611674 0.195262146,0.195262146 Z" id="直线-2" transform="translate(4.000000, 4.000000) scale(-1, 1) translate(-4.000000, -4.000000) "></path>
            </g>
        </g>
    </g>
</svg>