<?xml version="1.0" standalone="no"?><!DOCTYPE svg PUBLIC "-//W3C//DTD SVG 1.1//EN" "http://www.w3.org/Graphics/SVG/1.1/DTD/svg11.dtd"><svg class="icon" width="200px" height="200.00px" viewBox="0 0 1024 1024" version="1.1" xmlns="http://www.w3.org/2000/svg"><path fill="#333333" d="M509.3 851.1c-12.9 0-25.1-5-34.2-14.2L98 459.8c-9.1-9.1-14.2-21.3-14.2-34.2s5-25.1 14.2-34.2l203.1-203.1c9.1-9.1 21.3-14.2 34.2-14.2h348.1c12.9 0 25.1 5 34.2 14.2l203.1 203.1c9.1 9.1 14.2 21.3 14.2 34.2s-5 25.1-14.2 34.2L543.5 837c-9.1 9.1-21.2 14.1-34.2 14.1z m-174-645.5c-4.5 0-8.7 1.7-11.9 4.9L120.3 413.7c-3.2 3.2-4.9 7.4-4.9 11.9s1.8 8.7 4.9 11.9l377.2 377.2c6.4 6.4 17.5 6.4 23.9 0l377.2-377.2c3.2-3.2 4.9-7.4 4.9-11.9s-1.8-8.7-4.9-11.9L695.3 210.6c-3.2-3.2-7.4-4.9-11.9-4.9H335.3zM667.1 396.9h-298c-8.7 0-15.8-7.1-15.8-15.8 0-8.7 7-15.8 15.8-15.8h298.1c8.7 0 15.8 7.1 15.8 15.8-0.1 8.8-7.1 15.8-15.9 15.8zM650 541.8H351.9c-8.7 0-15.8-7.1-15.8-15.8s7-15.8 15.8-15.8H650c8.7 0 15.8 7.1 15.8 15.8s-7.1 15.8-15.8 15.8zM564.8 618.4c-0.6 0-1.2 0-1.8-0.1-8.6-1-14.9-8.8-13.9-17.5l34.3-298.1c1-8.6 8.8-14.8 17.5-13.9 8.6 1 14.9 8.8 13.9 17.5l-34.3 298.1c-1 8.1-7.8 14-15.7 14zM420 618.4c-0.6 0-1.2 0-1.8-0.1-8.6-1-14.9-8.8-13.9-17.5l34.3-298.1c1-8.6 8.8-14.8 17.5-13.9 8.6 1 14.9 8.8 13.9 17.5l-34.3 298.1c-1 8.1-7.8 14-15.7 14z" /></svg>